<svg width="16" height="15" viewBox="0 0 16 15" fill="none" xmlns="http://www.w3.org/2000/svg">
<path d="M13.395 12.7998C11.9421 14.2528 10.1547 14.9792 8.03293 14.9792C5.91116 14.9792 4.11226 14.2528 2.63624 12.7998C1.18329 11.3469 0.456818 9.57103 0.456818 7.47232C0.456818 5.37362 1.18329 3.60932 2.63624 2.17943C4.11226 0.726475 5.91116 0 8.03293 0C10.1547 0 11.9421 0.726475 13.395 2.17943C14.871 3.60932 15.609 5.37362 15.609 7.47232C15.609 9.57103 14.871 11.3469 13.395 12.7998ZM3.81244 3.21725C2.70543 4.34732 2.15193 5.76568 2.15193 7.47232C2.15193 9.17897 2.70543 10.6089 3.81244 11.762C4.94252 12.8921 6.34935 13.4571 8.03293 13.4571C9.71651 13.4571 11.1118 12.8921 12.2188 11.762C13.3489 10.6089 13.9139 9.17897 13.9139 7.47232C13.9139 5.76568 13.3489 4.34732 12.2188 3.21725C11.1118 2.08718 9.71651 1.52214 8.03293 1.52214C6.34935 1.52214 4.94252 2.08718 3.81244 3.21725ZM5.36918 10.8971V3.80535H8.89778C9.63579 3.80535 10.2354 4.00138 10.6967 4.39345C11.1579 4.78552 11.3886 5.2929 11.3886 5.91559C11.3886 6.35378 11.2502 6.73432 10.9734 7.05719C10.6967 7.38007 10.3277 7.58764 9.86641 7.67989C10.6044 7.84133 10.9965 8.32565 11.0426 9.13284L11.1118 10.1361C11.1579 10.5743 11.2041 10.828 11.2502 10.8971H9.58966C9.54354 10.828 9.49741 10.5973 9.45128 10.2053L9.38209 9.23662C9.33597 8.61393 9.03616 8.30258 8.48265 8.30258H7.0297V10.8971H5.36918ZM7.0297 7.19557H8.58643C9.32444 7.19557 9.69344 6.81504 9.69344 6.05397C9.69344 5.75415 9.58966 5.51199 9.38209 5.32749C9.17453 5.14299 8.90931 5.05074 8.58643 5.05074H7.0297V7.19557Z" fill="black"/>
</svg>
